<svg xmlns="http://www.w3.org/2000/svg" xmlns:xlink="http://www.w3.org/1999/xlink" width="4157" zoomAndPan="magnify" viewBox="0 0 3117.75 453.749989" height="604" preserveAspectRatio="xMidYMid meet" version="1.0"><defs><g/><clipPath id="e9ac3285c2"><path d="M 1081.519531 100.214844 L 1410.3125 100.214844 L 1410.3125 383.96875 L 1081.519531 383.96875 Z M 1081.519531 100.214844 " clip-rule="nonzero"/></clipPath><clipPath id="1197ec8bb3"><path d="M 12.726562 77 L 328.007812 77 L 328.007812 374 L 12.726562 374 Z M 12.726562 77 " clip-rule="nonzero"/></clipPath><clipPath id="ecc8fec10a"><path d="M 361.296875 172 L 565 172 L 565 375.863281 L 361.296875 375.863281 Z M 361.296875 172 " clip-rule="nonzero"/></clipPath><clipPath id="4c7576ddeb"><path d="M 507 74.09375 L 708.105469 74.09375 L 708.105469 375.863281 L 507 375.863281 Z M 507 74.09375 " clip-rule="nonzero"/></clipPath><clipPath id="5f7f404f73"><path d="M 361.296875 353 L 530 353 L 530 375.863281 L 361.296875 375.863281 Z M 361.296875 353 " clip-rule="nonzero"/></clipPath><clipPath id="bfe6919573"><path d="M 507 119 L 708.105469 119 L 708.105469 375.863281 L 507 375.863281 Z M 507 119 " clip-rule="nonzero"/></clipPath><clipPath id="310eeca2da"><path d="M 507 74.09375 L 536 74.09375 L 536 124 L 507 124 Z M 507 74.09375 " clip-rule="nonzero"/></clipPath><clipPath id="f39b8a9367"><path d="M 731.421875 84 L 1046.699219 84 L 1046.699219 381 L 731.421875 381 Z M 731.421875 84 " clip-rule="nonzero"/></clipPath></defs><g clip-path="url(#e9ac3285c2)"><path fill="#ffffff" d="M 1387.421875 151.359375 L 1387.421875 124.765625 C 1387.421875 124.382812 1387.273438 124.082031 1387.042969 123.851562 C 1386.816406 123.625 1386.511719 123.472656 1386.132812 123.472656 L 1157.804688 123.472656 C 1157.425781 123.472656 1157.121094 123.625 1156.894531 123.851562 C 1156.664062 124.082031 1156.511719 124.382812 1156.511719 124.765625 L 1156.511719 141.253906 L 1133.414062 141.253906 L 1133.414062 124.765625 C 1133.414062 118.078125 1136.148438 111.921875 1140.558594 107.515625 C 1144.964844 103.109375 1151.042969 100.375 1157.804688 100.375 L 1386.132812 100.375 C 1392.816406 100.375 1398.972656 103.109375 1403.378906 107.515625 C 1407.785156 111.921875 1410.523438 118 1410.523438 124.765625 L 1410.523438 151.359375 C 1410.523438 158.042969 1407.785156 164.199219 1403.378906 168.605469 L 1403.304688 168.605469 C 1398.898438 173.011719 1392.816406 175.75 1386.132812 175.75 L 1156.511719 175.75 L 1156.511719 195.425781 C 1156.511719 195.65625 1156.511719 195.808594 1156.589844 195.882812 L 1156.589844 195.960938 C 1156.589844 196.035156 1156.742188 196.1875 1156.894531 196.339844 C 1174.140625 214.195312 1191.390625 232.050781 1208.5625 249.90625 L 1212.96875 254.464844 L 1214.410156 255.984375 C 1214.5625 256.136719 1214.714844 256.289062 1214.792969 256.289062 C 1214.867188 256.289062 1215.019531 256.289062 1215.324219 256.289062 L 1341.074219 256.289062 C 1341.453125 256.289062 1341.757812 256.136719 1341.984375 255.910156 C 1342.214844 255.683594 1342.367188 255.378906 1342.367188 254.996094 L 1342.367188 228.402344 C 1342.367188 228.023438 1342.214844 227.71875 1341.984375 227.492188 C 1341.757812 227.265625 1341.453125 227.113281 1341.074219 227.113281 L 1215.171875 227.113281 C 1214.867188 227.113281 1214.714844 227.113281 1214.640625 227.113281 C 1214.5625 227.113281 1214.410156 227.265625 1214.261719 227.417969 L 1208.410156 233.265625 L 1192.453125 216.703125 L 1198.074219 211.15625 C 1200.355469 208.875 1203.015625 207.054688 1205.976562 205.914062 C 1208.941406 204.699219 1212.054688 204.089844 1215.246094 204.089844 L 1341.148438 204.089844 C 1347.835938 204.089844 1353.992188 206.824219 1358.398438 211.230469 C 1362.804688 215.640625 1365.539062 221.71875 1365.539062 228.480469 L 1365.539062 255.074219 C 1365.539062 261.761719 1362.804688 267.914062 1358.398438 272.320312 L 1358.324219 272.320312 C 1353.914062 276.730469 1347.835938 279.464844 1341.152344 279.464844 L 1215.398438 279.464844 C 1212.054688 279.464844 1208.867188 278.78125 1205.902344 277.566406 C 1202.9375 276.273438 1200.277344 274.449219 1197.921875 272.019531 L 1184.09375 257.734375 L 1156.96875 284.632812 C 1156.816406 284.78125 1156.742188 284.933594 1156.664062 285.011719 C 1156.664062 285.085938 1156.589844 285.238281 1156.589844 285.542969 L 1156.589844 296.484375 L 1133.492188 296.484375 L 1133.492188 285.542969 C 1133.492188 282.277344 1134.097656 279.160156 1135.3125 276.195312 C 1136.53125 273.308594 1138.355469 270.648438 1140.710938 268.292969 L 1168.0625 241.09375 L 1140.328125 212.371094 C 1138.125 210.09375 1136.378906 207.507812 1135.238281 204.621094 C 1134.097656 201.734375 1133.492188 198.695312 1133.492188 195.503906 L 1133.492188 175.824219 L 1105.910156 175.824219 C 1105.53125 175.824219 1105.226562 175.976562 1104.996094 176.203125 C 1104.769531 176.433594 1104.617188 176.734375 1104.617188 177.117188 L 1104.617188 306.515625 C 1104.617188 306.894531 1104.769531 307.199219 1104.996094 307.425781 C 1105.226562 307.652344 1105.53125 307.804688 1105.910156 307.804688 L 1386.207031 307.804688 C 1392.894531 307.804688 1399.050781 310.539062 1403.457031 314.949219 C 1407.863281 319.355469 1410.597656 325.433594 1410.597656 332.195312 L 1410.597656 358.789062 C 1410.597656 365.476562 1407.863281 371.628906 1403.457031 376.039062 C 1399.050781 380.445312 1392.96875 383.179688 1386.207031 383.179688 L 1157.882812 383.179688 C 1151.195312 383.179688 1145.039062 380.445312 1140.632812 376.039062 C 1136.226562 371.628906 1133.492188 365.550781 1133.492188 358.789062 L 1133.492188 330.902344 L 1105.910156 330.902344 C 1099.222656 330.902344 1093.144531 328.167969 1088.738281 323.761719 L 1088.660156 323.761719 C 1084.253906 319.355469 1081.519531 313.277344 1081.519531 306.515625 L 1081.519531 177.117188 C 1081.519531 170.429688 1084.253906 164.273438 1088.660156 159.867188 C 1093.066406 155.460938 1099.148438 152.726562 1105.910156 152.726562 L 1386.207031 152.726562 C 1386.585938 152.726562 1386.890625 152.574219 1387.121094 152.347656 C 1387.347656 152.117188 1387.5 151.8125 1387.5 151.433594 Z M 1156.511719 330.828125 L 1156.511719 358.714844 C 1156.511719 359.09375 1156.664062 359.398438 1156.894531 359.625 C 1157.121094 359.851562 1157.425781 360.003906 1157.804688 360.003906 L 1386.132812 360.003906 C 1386.511719 360.003906 1386.816406 359.851562 1387.042969 359.625 C 1387.273438 359.398438 1387.421875 359.09375 1387.421875 358.714844 L 1387.421875 332.121094 C 1387.421875 331.738281 1387.273438 331.4375 1387.042969 331.207031 C 1386.816406 330.980469 1386.511719 330.828125 1386.132812 330.828125 Z M 1156.511719 330.828125 " fill-opacity="1" fill-rule="evenodd"/></g><g clip-path="url(#1197ec8bb3)"><path fill="#ffffff" d="M 38.84375 179.871094 L 85.003906 99.96875 L 301.960938 99.96875 L 288.773438 77.339844 L 71.945312 77.339844 L 29.277344 151.296875 L 25.785156 157.246094 L 12.726562 179.871094 L 25.785156 202.5 L 38.84375 225.253906 L 51.902344 247.882812 L 58.886719 259.777344 L 71.945312 282.53125 L 216.496094 282.53125 L 234.597656 251.113281 L 242.742188 237.148438 L 249.59375 225.253906 L 256.449219 213.230469 L 124.308594 213.230469 L 137.367188 190.601562 L 255.800781 190.601562 L 270.542969 216.203125 L 275.714844 225.253906 L 252.699219 265.207031 L 229.554688 305.160156 L 12.726562 305.160156 L 25.785156 327.785156 L 242.742188 327.785156 L 288.773438 247.882812 L 301.960938 270.507812 L 255.800781 350.410156 L 38.84375 350.410156 L 51.902344 373.039062 L 268.859375 373.039062 L 311.527344 299.210938 L 315.019531 293.132812 L 328.078125 270.507812 L 315.019531 247.882812 L 301.960938 225.253906 L 288.773438 202.5 L 281.917969 190.601562 L 268.859375 167.976562 L 124.308594 167.976562 L 106.207031 199.265625 L 98.0625 213.230469 L 91.207031 225.253906 L 84.226562 237.148438 L 216.496094 237.148438 L 203.4375 259.777344 L 85.003906 259.777344 L 70.261719 234.175781 L 65.089844 225.253906 L 88.105469 185.300781 L 111.121094 145.351562 L 328.078125 145.351562 L 315.019531 122.59375 L 98.0625 122.59375 L 51.902344 202.5 Z M 38.84375 179.871094 " fill-opacity="1" fill-rule="evenodd"/></g><g clip-path="url(#ecc8fec10a)"><path fill="#ffffff" d="M 535.75 172.1875 L 479.203125 172.1875 L 361.296875 376.417969 L 530.9375 376.417969 L 564.027344 319.09375 L 540.566406 278.476562 L 535.75 270.128906 L 530.9375 278.476562 L 502.660156 327.441406 L 446.121094 327.441406 Z M 535.75 172.1875 " fill-opacity="1" fill-rule="evenodd"/></g><g clip-path="url(#4c7576ddeb)"><path fill="#ffffff" d="M 710.214844 376.417969 L 622.984375 225.324219 L 535.75 74.242188 L 507.484375 123.21875 L 520.492188 145.753906 L 535.75 172.1875 L 551.269531 199.054688 L 625.390625 327.441406 L 640.648438 353.875 L 653.667969 376.417969 Z M 710.214844 376.417969 " fill-opacity="1" fill-rule="evenodd"/></g><path fill="#ffffff" d="M 535.75 172.1875 L 491.839844 195.378906 L 400.335938 353.875 L 446.121094 327.441406 Z M 535.75 172.1875 " fill-opacity="1" fill-rule="evenodd"/><g clip-path="url(#5f7f404f73)"><path fill="#ffffff" d="M 400.335938 353.875 L 361.296875 376.417969 L 529.214844 376.417969 L 516.988281 353.875 Z M 400.335938 353.875 " fill-opacity="1" fill-rule="evenodd"/></g><path fill="#ffffff" d="M 502.660156 327.441406 L 516.988281 353.875 L 531.683594 327.441406 L 537.480469 317.015625 L 535.75 270.128906 Z M 502.660156 327.441406 " fill-opacity="1" fill-rule="evenodd"/><g clip-path="url(#bfe6919573)"><path fill="#ffffff" d="M 551.269531 199.054688 L 625.390625 327.441406 L 640.648438 353.875 L 653.667969 376.417969 L 710.214844 376.417969 L 671.175781 353.875 L 535.75 119.324219 L 507.484375 123.21875 L 520.492188 145.753906 L 535.75 172.1875 Z M 551.269531 199.054688 " fill-opacity="1" fill-rule="evenodd"/></g><g clip-path="url(#310eeca2da)"><path fill="#ffffff" d="M 535.75 119.324219 L 535.75 74.242188 L 507.484375 123.21875 Z M 535.75 119.324219 " fill-opacity="1" fill-rule="evenodd"/></g><g clip-path="url(#f39b8a9367)"><path fill="#ffffff" d="M 757.539062 186.894531 L 803.695312 106.992188 L 1020.652344 106.992188 L 1007.464844 84.363281 L 790.636719 84.363281 L 747.96875 158.320312 L 744.480469 164.269531 L 731.421875 186.894531 L 744.480469 209.523438 L 757.539062 232.277344 L 770.597656 254.90625 L 777.578125 266.800781 L 790.636719 289.554688 L 935.191406 289.554688 L 953.289062 258.136719 L 961.4375 244.171875 L 968.289062 232.277344 L 975.140625 220.253906 L 843.003906 220.253906 L 856.0625 197.628906 L 974.496094 197.628906 L 989.234375 223.226562 L 994.40625 232.277344 L 971.390625 272.230469 L 948.25 312.183594 L 731.421875 312.183594 L 744.480469 334.808594 L 961.4375 334.808594 L 1007.464844 254.90625 L 1020.652344 277.53125 L 974.496094 357.4375 L 757.539062 357.4375 L 770.597656 380.0625 L 987.554688 380.0625 L 1030.222656 306.234375 L 1033.710938 300.15625 L 1046.769531 277.53125 L 1033.710938 254.90625 L 1020.652344 232.277344 L 1007.464844 209.523438 L 1000.613281 197.628906 L 987.554688 175 L 843.003906 175 L 824.902344 206.289062 L 816.753906 220.253906 L 809.902344 232.277344 L 802.921875 244.171875 L 935.191406 244.171875 L 922.128906 266.800781 L 803.695312 266.800781 L 788.957031 241.199219 L 783.785156 232.277344 L 806.800781 192.324219 L 829.8125 152.375 L 1046.769531 152.375 L 1033.710938 129.617188 L 816.753906 129.617188 L 770.597656 209.523438 Z M 757.539062 186.894531 " fill-opacity="1" fill-rule="evenodd"/></g><g fill="#ffffff" fill-opacity="1"><g transform="translate(1571.092103, 251.300654)"><g><path d="M 9.5 -27.363281 C 9.5 -9.5 19 0 36.863281 0 L 61.945312 0 C 79.613281 0 89.304688 -9.5 89.304688 -27.363281 L 89.304688 -80.183594 C 89.304688 -82.273438 88.164062 -83.226562 86.265625 -83.226562 L 54.34375 -83.226562 C 52.253906 -83.226562 51.304688 -82.273438 51.304688 -80.183594 L 51.304688 -61.183594 C 51.304688 -59.285156 52.253906 -58.144531 54.34375 -58.144531 L 64.222656 -58.144531 L 64.222656 -32.683594 C 64.222656 -27.550781 61.5625 -25.082031 56.625 -25.082031 L 42.941406 -25.082031 C 38.003906 -25.082031 35.34375 -27.550781 35.34375 -32.683594 L 35.34375 -119.328125 C 35.34375 -124.265625 37.8125 -126.925781 42.941406 -126.925781 L 56.625 -126.925781 C 61.5625 -126.925781 64.222656 -124.265625 64.222656 -119.328125 L 64.222656 -104.886719 C 64.222656 -102.984375 65.171875 -101.847656 67.265625 -101.847656 L 86.265625 -101.847656 C 88.164062 -101.847656 89.304688 -102.984375 89.304688 -104.886719 L 89.304688 -124.648438 C 89.304688 -142.507812 79.613281 -152.007812 61.945312 -152.007812 L 36.863281 -152.007812 C 19 -152.007812 9.5 -142.507812 9.5 -124.648438 Z M 9.5 -27.363281 "/></g></g></g><g fill="#ffffff" fill-opacity="1"><g transform="translate(1718.699863, 251.300654)"><g><path d="M 101.085938 0 C 103.367188 0 104.125 -1.140625 103.746094 -3.230469 L 72.203125 -149.347656 C 71.824219 -151.25 70.683594 -152.007812 68.972656 -152.007812 L 42.5625 -152.007812 C 40.851562 -152.007812 39.710938 -151.25 39.332031 -149.347656 L 7.789062 -3.230469 C 7.21875 -1.140625 8.171875 0 10.261719 0 L 30.589844 0 C 32.300781 0 33.25 -0.949219 33.632812 -2.660156 L 38.761719 -30.402344 L 72.585938 -30.402344 L 77.90625 -2.660156 C 78.285156 -0.949219 79.234375 0 80.945312 0 Z M 67.832031 -52.441406 L 43.511719 -52.441406 L 55.671875 -118.757812 Z M 67.832031 -52.441406 "/></g></g></g><g fill="#ffffff" fill-opacity="1"><g transform="translate(1878.84379, 251.300654)"><g><path d="M 88.925781 -152.007812 C 86.644531 -152.007812 85.316406 -150.867188 84.746094 -148.589844 L 63.652344 -53.964844 L 42.5625 -148.589844 C 41.992188 -150.867188 40.664062 -152.007812 38.382812 -152.007812 L 13.300781 -152.007812 C 10.832031 -152.007812 9.5 -150.679688 9.5 -148.207031 L 9.5 -3.800781 C 9.5 -1.328125 10.832031 0 13.300781 0 L 30.78125 0 C 33.25 0 34.582031 -1.328125 34.582031 -3.800781 L 34.582031 -89.304688 L 35.910156 -89.304688 L 54.722656 -3.421875 C 55.292969 -1.140625 56.625 0 58.902344 0 L 68.214844 0 C 70.492188 0 71.824219 -1.140625 72.394531 -3.421875 L 91.207031 -89.304688 L 92.535156 -89.304688 L 92.535156 -3.800781 C 92.535156 -1.328125 93.867188 0 96.335938 0 L 114.007812 0 C 116.476562 0 117.808594 -1.328125 117.808594 -3.800781 L 117.808594 -148.207031 C 117.808594 -150.679688 116.476562 -152.007812 114.007812 -152.007812 Z M 88.925781 -152.007812 "/></g></g></g><g fill="#ffffff" fill-opacity="1"><g transform="translate(2054.943001, 251.300654)"><g><path d="M 85.316406 -148.96875 C 85.316406 -150.867188 84.554688 -152.007812 82.273438 -152.007812 L 12.351562 -152.007812 C 10.640625 -152.007812 9.5 -150.867188 9.5 -148.96875 L 9.5 -3.039062 C 9.5 -1.140625 10.640625 0 12.351562 0 L 82.273438 0 C 84.554688 0 85.316406 -1.140625 85.316406 -3.039062 L 85.316406 -22.042969 C 85.316406 -24.132812 84.554688 -25.082031 82.273438 -25.082031 L 34.773438 -25.082031 L 34.773438 -63.464844 L 71.0625 -63.464844 C 72.964844 -63.464844 74.105469 -64.605469 74.105469 -66.695312 L 74.105469 -85.503906 C 74.105469 -87.59375 72.964844 -88.734375 71.0625 -88.734375 L 34.773438 -88.734375 L 34.773438 -126.738281 L 82.273438 -126.738281 C 84.554688 -126.738281 85.316406 -128.066406 85.316406 -129.96875 Z M 85.316406 -148.96875 "/></g></g></g><g fill="#ffffff" fill-opacity="1"><g transform="translate(2198.561878, 251.300654)"><g/></g></g><g fill="#ffffff" fill-opacity="1"><g transform="translate(2294.884937, 251.300654)"><g><path d="M 36.863281 -152.007812 C 19.191406 -152.007812 9.5 -142.507812 9.5 -124.648438 L 9.5 -79.804688 C 9.5 -76.195312 11.210938 -73.914062 14.628906 -72.773438 L 59.664062 -57.953125 L 59.664062 -32.683594 C 59.664062 -27.550781 57.003906 -25.082031 52.0625 -25.082031 L 42.941406 -25.082031 C 38.191406 -25.082031 35.34375 -27.550781 35.34375 -32.683594 L 35.34375 -47.3125 C 35.34375 -49.402344 34.390625 -50.351562 32.300781 -50.351562 L 12.539062 -50.351562 C 10.640625 -50.351562 9.5 -49.402344 9.5 -47.3125 L 9.5 -27.363281 C 9.5 -9.5 19.191406 0 36.863281 0 L 58.144531 0 C 76.003906 0 85.503906 -9.5 85.503906 -27.363281 L 85.503906 -71.253906 C 85.503906 -74.863281 83.792969 -76.953125 80.566406 -78.285156 L 35.34375 -93.105469 L 35.34375 -119.328125 C 35.34375 -124.265625 38.191406 -126.925781 42.941406 -126.925781 L 52.0625 -126.925781 C 57.191406 -126.925781 59.664062 -124.265625 59.664062 -119.328125 L 59.664062 -104.507812 C 59.664062 -102.605469 60.804688 -101.464844 62.703125 -101.464844 L 82.464844 -101.464844 C 84.554688 -101.464844 85.503906 -102.605469 85.503906 -104.507812 L 85.503906 -124.648438 C 85.503906 -142.507812 76.003906 -152.007812 58.144531 -152.007812 Z M 36.863281 -152.007812 "/></g></g></g><g fill="#ffffff" fill-opacity="1"><g transform="translate(2438.693782, 251.300654)"><g><path d="M 8.742188 -152.007812 C 6.839844 -152.007812 5.699219 -150.867188 5.699219 -148.96875 L 5.699219 -129.96875 C 5.699219 -128.066406 6.839844 -126.925781 8.742188 -126.925781 L 30.78125 -126.925781 L 30.78125 -3.039062 C 30.78125 -0.949219 31.921875 0 33.820312 0 L 53.582031 0 C 55.671875 0 56.625 -0.949219 56.625 -3.039062 L 56.625 -126.925781 L 78.664062 -126.925781 C 80.753906 -126.925781 81.703125 -128.066406 81.703125 -129.96875 L 81.703125 -148.96875 C 81.703125 -150.867188 80.753906 -152.007812 78.664062 -152.007812 Z M 8.742188 -152.007812 "/></g></g></g><g fill="#ffffff" fill-opacity="1"><g transform="translate(2574.904916, 251.300654)"><g><path d="M 64.222656 -152.007812 C 62.132812 -152.007812 60.421875 -150.296875 60.421875 -148.207031 L 60.421875 -32.683594 C 60.421875 -27.550781 57.761719 -25.082031 52.824219 -25.082031 L 42.941406 -25.082031 C 38.003906 -25.082031 35.34375 -27.550781 35.34375 -32.683594 L 35.34375 -148.207031 C 35.34375 -150.296875 33.632812 -152.007812 31.542969 -152.007812 L 13.300781 -152.007812 C 11.210938 -152.007812 9.5 -150.296875 9.5 -148.207031 L 9.5 -27.363281 C 9.5 -9.5 19 0 36.863281 0 L 58.144531 0 C 76.003906 0 85.503906 -9.5 85.503906 -27.363281 L 85.503906 -148.207031 C 85.503906 -150.296875 83.792969 -152.007812 81.703125 -152.007812 Z M 64.222656 -152.007812 "/></g></g></g><g fill="#ffffff" fill-opacity="1"><g transform="translate(2718.713761, 251.300654)"><g><path d="M 9.5 -3.039062 C 9.5 -0.949219 10.449219 0 12.539062 0 L 58.144531 0 C 76.003906 0 85.503906 -9.5 85.503906 -27.363281 L 85.503906 -124.457031 C 85.503906 -142.316406 76.003906 -152.007812 58.144531 -152.007812 L 12.539062 -152.007812 C 10.449219 -152.007812 9.5 -150.867188 9.5 -148.96875 Z M 35.34375 -25.082031 L 35.34375 -126.925781 L 52.824219 -126.925781 C 57.761719 -126.925781 60.421875 -124.265625 60.421875 -119.136719 L 60.421875 -32.683594 C 60.421875 -27.550781 57.761719 -25.082031 52.824219 -25.082031 Z M 35.34375 -25.082031 "/></g></g></g><g fill="#ffffff" fill-opacity="1"><g transform="translate(2862.522606, 251.300654)"><g><path d="M 12.539062 -152.007812 C 10.449219 -152.007812 9.5 -150.867188 9.5 -148.96875 L 9.5 -3.039062 C 9.5 -1.140625 10.449219 0 12.539062 0 L 32.300781 0 C 34.203125 0 35.34375 -1.140625 35.34375 -3.039062 L 35.34375 -148.96875 C 35.34375 -150.867188 34.203125 -152.007812 32.300781 -152.007812 Z M 12.539062 -152.007812 "/></g></g></g><g fill="#ffffff" fill-opacity="1"><g transform="translate(2956.186409, 251.300654)"><g><path d="M 9.5 -27.363281 C 9.5 -9.5 19 0 36.863281 0 L 58.144531 0 C 76.003906 0 85.503906 -9.5 85.503906 -27.363281 L 85.503906 -124.648438 C 85.503906 -142.507812 76.003906 -152.007812 58.144531 -152.007812 L 36.863281 -152.007812 C 19 -152.007812 9.5 -142.507812 9.5 -124.648438 Z M 42.371094 -24.511719 C 37.433594 -24.511719 34.773438 -26.980469 34.773438 -32.113281 L 34.773438 -119.898438 C 34.773438 -124.835938 37.433594 -127.496094 42.371094 -127.496094 L 53.394531 -127.496094 C 58.332031 -127.496094 60.992188 -124.835938 60.992188 -119.898438 L 60.992188 -32.113281 C 60.992188 -26.980469 58.332031 -24.511719 53.394531 -24.511719 Z M 42.371094 -24.511719 "/></g></g></g><g fill="#ffffff" fill-opacity="1"><g transform="translate(1593.945384, 388.944961)"><g><path d="M 36.761719 -53.472656 C 36.761719 -61.132812 32.605469 -65.207031 25.023438 -65.207031 L 15.894531 -65.207031 C 8.234375 -65.207031 4.074219 -61.132812 4.074219 -53.472656 L 4.074219 -11.738281 C 4.074219 -4.074219 8.234375 0 15.894531 0 L 25.023438 0 C 32.605469 0 36.761719 -4.074219 36.761719 -11.738281 L 36.761719 -20.539062 C 36.761719 -21.355469 36.273438 -21.84375 35.457031 -21.84375 L 27.304688 -21.84375 C 26.410156 -21.84375 26.003906 -21.355469 26.003906 -20.539062 L 26.003906 -14.019531 C 26.003906 -11.820312 24.859375 -10.757812 22.742188 -10.757812 L 18.503906 -10.757812 C 16.382812 -10.757812 15.242188 -11.820312 15.242188 -14.019531 L 15.242188 -51.1875 C 15.242188 -53.308594 16.300781 -54.449219 18.503906 -54.449219 L 22.742188 -54.449219 C 24.859375 -54.449219 26.003906 -53.308594 26.003906 -51.1875 L 26.003906 -44.667969 C 26.003906 -43.851562 26.410156 -43.363281 27.304688 -43.363281 L 35.457031 -43.363281 C 36.273438 -43.363281 36.761719 -43.851562 36.761719 -44.667969 Z M 36.761719 -53.472656 "/></g></g></g><g fill="#ffffff" fill-opacity="1"><g transform="translate(1653.8562, 388.944961)"><g><path d="M 37.578125 -53.472656 C 37.578125 -61.132812 33.5 -65.207031 25.839844 -65.207031 L 5.378906 -65.207031 C 4.566406 -65.207031 4.074219 -64.71875 4.074219 -63.90625 L 4.074219 -1.304688 C 4.074219 -0.488281 4.566406 0 5.378906 0 L 13.855469 0 C 14.671875 0 15.160156 -0.488281 15.160156 -1.304688 L 15.160156 -21.84375 L 20.785156 -21.84375 L 26.246094 -1.140625 C 26.410156 -0.40625 26.816406 0 27.632812 0 L 36.109375 0 C 37.007812 0 37.496094 -0.488281 37.25 -1.46875 L 31.625 -22.824219 C 35.539062 -24.535156 37.578125 -28.121094 37.578125 -33.582031 Z M 15.160156 -32.605469 L 15.160156 -54.449219 L 23.230469 -54.449219 C 25.351562 -54.449219 26.492188 -53.308594 26.492188 -51.1875 L 26.492188 -35.863281 C 26.492188 -33.746094 25.351562 -32.605469 23.230469 -32.605469 Z M 15.160156 -32.605469 "/></g></g></g><g fill="#ffffff" fill-opacity="1"><g transform="translate(1714.582197, 388.944961)"><g><path d="M 36.597656 -63.90625 C 36.597656 -64.71875 36.273438 -65.207031 35.292969 -65.207031 L 5.296875 -65.207031 C 4.566406 -65.207031 4.074219 -64.71875 4.074219 -63.90625 L 4.074219 -1.304688 C 4.074219 -0.488281 4.566406 0 5.296875 0 L 35.292969 0 C 36.273438 0 36.597656 -0.488281 36.597656 -1.304688 L 36.597656 -9.457031 C 36.597656 -10.351562 36.273438 -10.757812 35.292969 -10.757812 L 14.917969 -10.757812 L 14.917969 -27.226562 L 30.484375 -27.226562 C 31.300781 -27.226562 31.789062 -27.714844 31.789062 -28.609375 L 31.789062 -36.679688 C 31.789062 -37.578125 31.300781 -38.066406 30.484375 -38.066406 L 14.917969 -38.066406 L 14.917969 -54.367188 L 35.292969 -54.367188 C 36.273438 -54.367188 36.597656 -54.9375 36.597656 -55.753906 Z M 36.597656 -63.90625 "/></g></g></g><g fill="#ffffff" fill-opacity="1"><g transform="translate(1774.329978, 388.944961)"><g><path d="M 43.363281 0 C 44.34375 0 44.667969 -0.488281 44.503906 -1.386719 L 30.972656 -64.066406 C 30.8125 -64.882812 30.320312 -65.207031 29.589844 -65.207031 L 18.257812 -65.207031 C 17.523438 -65.207031 17.035156 -64.882812 16.871094 -64.066406 L 3.34375 -1.386719 C 3.097656 -0.488281 3.503906 0 4.402344 0 L 13.125 0 C 13.855469 0 14.265625 -0.40625 14.425781 -1.140625 L 16.628906 -13.042969 L 31.136719 -13.042969 L 33.417969 -1.140625 C 33.582031 -0.40625 33.988281 0 34.722656 0 Z M 29.097656 -22.496094 L 18.664062 -22.496094 L 23.882812 -50.945312 Z M 29.097656 -22.496094 "/></g></g></g><g fill="#ffffff" fill-opacity="1"><g transform="translate(1841.169254, 388.944961)"><g><path d="M 3.75 -65.207031 C 2.933594 -65.207031 2.445312 -64.71875 2.445312 -63.90625 L 2.445312 -55.753906 C 2.445312 -54.9375 2.933594 -54.449219 3.75 -54.449219 L 13.203125 -54.449219 L 13.203125 -1.304688 C 13.203125 -0.40625 13.695312 0 14.507812 0 L 22.984375 0 C 23.882812 0 24.289062 -0.40625 24.289062 -1.304688 L 24.289062 -54.449219 L 33.746094 -54.449219 C 34.640625 -54.449219 35.050781 -54.9375 35.050781 -55.753906 L 35.050781 -63.90625 C 35.050781 -64.71875 34.640625 -65.207031 33.746094 -65.207031 Z M 3.75 -65.207031 "/></g></g></g><g fill="#ffffff" fill-opacity="1"><g transform="translate(1897.738079, 388.944961)"><g><path d="M 5.378906 -65.207031 C 4.484375 -65.207031 4.074219 -64.71875 4.074219 -63.90625 L 4.074219 -1.304688 C 4.074219 -0.488281 4.484375 0 5.378906 0 L 13.855469 0 C 14.671875 0 15.160156 -0.488281 15.160156 -1.304688 L 15.160156 -63.90625 C 15.160156 -64.71875 14.671875 -65.207031 13.855469 -65.207031 Z M 5.378906 -65.207031 "/></g></g></g><g fill="#ffffff" fill-opacity="1"><g transform="translate(1936.048323, 388.944961)"><g><path d="M 32.523438 -65.207031 C 31.542969 -65.207031 30.972656 -64.71875 30.730469 -63.742188 L 22.089844 -20.050781 L 13.53125 -63.742188 C 13.285156 -64.71875 12.714844 -65.207031 11.738281 -65.207031 L 3.992188 -65.207031 C 2.769531 -65.207031 2.28125 -64.558594 2.527344 -63.414062 L 16.21875 -1.46875 C 16.464844 -0.488281 17.035156 0 18.015625 0 L 26.164062 0 C 27.144531 0 27.714844 -0.488281 27.957031 -1.46875 L 41.734375 -63.414062 C 41.976562 -64.558594 41.488281 -65.207031 40.265625 -65.207031 Z M 32.523438 -65.207031 "/></g></g></g><g fill="#ffffff" fill-opacity="1"><g transform="translate(1999.382676, 388.944961)"><g><path d="M 36.597656 -63.90625 C 36.597656 -64.71875 36.273438 -65.207031 35.292969 -65.207031 L 5.296875 -65.207031 C 4.566406 -65.207031 4.074219 -64.71875 4.074219 -63.90625 L 4.074219 -1.304688 C 4.074219 -0.488281 4.566406 0 5.296875 0 L 35.292969 0 C 36.273438 0 36.597656 -0.488281 36.597656 -1.304688 L 36.597656 -9.457031 C 36.597656 -10.351562 36.273438 -10.757812 35.292969 -10.757812 L 14.917969 -10.757812 L 14.917969 -27.226562 L 30.484375 -27.226562 C 31.300781 -27.226562 31.789062 -27.714844 31.789062 -28.609375 L 31.789062 -36.679688 C 31.789062 -37.578125 31.300781 -38.066406 30.484375 -38.066406 L 14.917969 -38.066406 L 14.917969 -54.367188 L 35.292969 -54.367188 C 36.273438 -54.367188 36.597656 -54.9375 36.597656 -55.753906 Z M 36.597656 -63.90625 "/></g></g></g><g fill="#ffffff" fill-opacity="1"><g transform="translate(2059.130444, 388.944961)"><g/></g></g><g fill="#ffffff" fill-opacity="1"><g transform="translate(2098.581837, 388.944961)"><g><path d="M 15.894531 -65.207031 C 8.234375 -65.207031 4.074219 -61.132812 4.074219 -53.472656 L 4.074219 -39.289062 C 4.074219 -36.273438 6.277344 -33.988281 9.210938 -33.5 L 9.210938 -33.339844 C 6.277344 -32.847656 4.074219 -30.566406 4.074219 -27.550781 L 4.074219 -11.738281 C 4.074219 -4.074219 8.234375 0 15.894531 0 L 35.132812 0 C 36.191406 0 36.761719 -0.570312 36.761719 -1.628906 L 36.761719 -28.039062 L 40.183594 -28.039062 C 41.246094 -28.039062 41.816406 -28.609375 41.816406 -29.671875 L 41.816406 -37.167969 C 41.816406 -38.230469 41.246094 -38.800781 40.183594 -38.800781 L 36.761719 -38.800781 L 36.761719 -42.058594 C 36.761719 -43.121094 36.191406 -43.691406 35.132812 -43.691406 L 27.386719 -43.691406 C 26.328125 -43.691406 25.757812 -43.121094 25.757812 -42.058594 L 25.757812 -38.800781 L 18.175781 -38.800781 C 16.058594 -38.800781 14.917969 -39.941406 14.917969 -41.976562 L 14.917969 -51.1875 C 14.917969 -53.308594 15.976562 -54.449219 18.175781 -54.449219 L 30.648438 -54.449219 C 31.707031 -54.449219 32.277344 -55.019531 32.277344 -56.078125 L 32.277344 -63.578125 C 32.277344 -64.636719 31.707031 -65.207031 30.648438 -65.207031 Z M 25.757812 -28.039062 L 25.757812 -10.757812 L 18.175781 -10.757812 C 16.058594 -10.757812 14.917969 -11.820312 14.917969 -14.019531 L 14.917969 -24.78125 C 14.917969 -26.898438 15.976562 -28.039062 18.175781 -28.039062 Z M 25.757812 -28.039062 "/></g></g></g><g fill="#ffffff" fill-opacity="1"><g transform="translate(2163.546342, 388.944961)"><g/></g></g><g fill="#ffffff" fill-opacity="1"><g transform="translate(2202.997735, 388.944961)"><g><path d="M 36.597656 -63.90625 C 36.597656 -64.71875 36.273438 -65.207031 35.292969 -65.207031 L 5.296875 -65.207031 C 4.566406 -65.207031 4.074219 -64.71875 4.074219 -63.90625 L 4.074219 -1.304688 C 4.074219 -0.488281 4.566406 0 5.296875 0 L 35.292969 0 C 36.273438 0 36.597656 -0.488281 36.597656 -1.304688 L 36.597656 -9.457031 C 36.597656 -10.351562 36.273438 -10.757812 35.292969 -10.757812 L 14.917969 -10.757812 L 14.917969 -27.226562 L 30.484375 -27.226562 C 31.300781 -27.226562 31.789062 -27.714844 31.789062 -28.609375 L 31.789062 -36.679688 C 31.789062 -37.578125 31.300781 -38.066406 30.484375 -38.066406 L 14.917969 -38.066406 L 14.917969 -54.367188 L 35.292969 -54.367188 C 36.273438 -54.367188 36.597656 -54.9375 36.597656 -55.753906 Z M 36.597656 -63.90625 "/></g></g></g><g fill="#ffffff" fill-opacity="1"><g transform="translate(2262.745503, 388.944961)"><g><path d="M 29.097656 -65.207031 C 28.203125 -65.207031 27.796875 -64.71875 27.796875 -63.90625 L 27.796875 -29.507812 L 27.304688 -29.507812 L 14.917969 -64.148438 C 14.671875 -64.882812 14.183594 -65.207031 13.449219 -65.207031 L 5.378906 -65.207031 C 4.566406 -65.207031 4.074219 -64.71875 4.074219 -63.90625 L 4.074219 -1.304688 C 4.074219 -0.488281 4.566406 0 5.378906 0 L 13.855469 0 C 14.753906 0 15.160156 -0.488281 15.160156 -1.304688 L 15.160156 -35.863281 L 15.570312 -35.863281 L 28.039062 -1.058594 C 28.285156 -0.324219 28.773438 0 29.507812 0 L 37.578125 0 C 38.390625 0 38.878906 -0.488281 38.878906 -1.304688 L 38.878906 -63.90625 C 38.878906 -64.71875 38.390625 -65.207031 37.578125 -65.207031 Z M 29.097656 -65.207031 "/></g></g></g><g fill="#ffffff" fill-opacity="1"><g transform="translate(2324.775671, 388.944961)"><g><path d="M 3.75 -65.207031 C 2.933594 -65.207031 2.445312 -64.71875 2.445312 -63.90625 L 2.445312 -55.753906 C 2.445312 -54.9375 2.933594 -54.449219 3.75 -54.449219 L 13.203125 -54.449219 L 13.203125 -1.304688 C 13.203125 -0.40625 13.695312 0 14.507812 0 L 22.984375 0 C 23.882812 0 24.289062 -0.40625 24.289062 -1.304688 L 24.289062 -54.449219 L 33.746094 -54.449219 C 34.640625 -54.449219 35.050781 -54.9375 35.050781 -55.753906 L 35.050781 -63.90625 C 35.050781 -64.71875 34.640625 -65.207031 33.746094 -65.207031 Z M 3.75 -65.207031 "/></g></g></g><g fill="#ffffff" fill-opacity="1"><g transform="translate(2381.344496, 388.944961)"><g><path d="M 36.597656 -63.90625 C 36.597656 -64.71875 36.273438 -65.207031 35.292969 -65.207031 L 5.296875 -65.207031 C 4.566406 -65.207031 4.074219 -64.71875 4.074219 -63.90625 L 4.074219 -1.304688 C 4.074219 -0.488281 4.566406 0 5.296875 0 L 35.292969 0 C 36.273438 0 36.597656 -0.488281 36.597656 -1.304688 L 36.597656 -9.457031 C 36.597656 -10.351562 36.273438 -10.757812 35.292969 -10.757812 L 14.917969 -10.757812 L 14.917969 -27.226562 L 30.484375 -27.226562 C 31.300781 -27.226562 31.789062 -27.714844 31.789062 -28.609375 L 31.789062 -36.679688 C 31.789062 -37.578125 31.300781 -38.066406 30.484375 -38.066406 L 14.917969 -38.066406 L 14.917969 -54.367188 L 35.292969 -54.367188 C 36.273438 -54.367188 36.597656 -54.9375 36.597656 -55.753906 Z M 36.597656 -63.90625 "/></g></g></g><g fill="#ffffff" fill-opacity="1"><g transform="translate(2441.092264, 388.944961)"><g><path d="M 37.578125 -53.472656 C 37.578125 -61.132812 33.5 -65.207031 25.839844 -65.207031 L 5.378906 -65.207031 C 4.566406 -65.207031 4.074219 -64.71875 4.074219 -63.90625 L 4.074219 -1.304688 C 4.074219 -0.488281 4.566406 0 5.378906 0 L 13.855469 0 C 14.671875 0 15.160156 -0.488281 15.160156 -1.304688 L 15.160156 -21.84375 L 20.785156 -21.84375 L 26.246094 -1.140625 C 26.410156 -0.40625 26.816406 0 27.632812 0 L 36.109375 0 C 37.007812 0 37.496094 -0.488281 37.25 -1.46875 L 31.625 -22.824219 C 35.539062 -24.535156 37.578125 -28.121094 37.578125 -33.582031 Z M 15.160156 -32.605469 L 15.160156 -54.449219 L 23.230469 -54.449219 C 25.351562 -54.449219 26.492188 -53.308594 26.492188 -51.1875 L 26.492188 -35.863281 C 26.492188 -33.746094 25.351562 -32.605469 23.230469 -32.605469 Z M 15.160156 -32.605469 "/></g></g></g><g fill="#ffffff" fill-opacity="1"><g transform="translate(2501.818299, 388.944961)"><g><path d="M 3.75 -65.207031 C 2.933594 -65.207031 2.445312 -64.71875 2.445312 -63.90625 L 2.445312 -55.753906 C 2.445312 -54.9375 2.933594 -54.449219 3.75 -54.449219 L 13.203125 -54.449219 L 13.203125 -1.304688 C 13.203125 -0.40625 13.695312 0 14.507812 0 L 22.984375 0 C 23.882812 0 24.289062 -0.40625 24.289062 -1.304688 L 24.289062 -54.449219 L 33.746094 -54.449219 C 34.640625 -54.449219 35.050781 -54.9375 35.050781 -55.753906 L 35.050781 -63.90625 C 35.050781 -64.71875 34.640625 -65.207031 33.746094 -65.207031 Z M 3.75 -65.207031 "/></g></g></g><g fill="#ffffff" fill-opacity="1"><g transform="translate(2558.387124, 388.944961)"><g><path d="M 43.363281 0 C 44.34375 0 44.667969 -0.488281 44.503906 -1.386719 L 30.972656 -64.066406 C 30.8125 -64.882812 30.320312 -65.207031 29.589844 -65.207031 L 18.257812 -65.207031 C 17.523438 -65.207031 17.035156 -64.882812 16.871094 -64.066406 L 3.34375 -1.386719 C 3.097656 -0.488281 3.503906 0 4.402344 0 L 13.125 0 C 13.855469 0 14.265625 -0.40625 14.425781 -1.140625 L 16.628906 -13.042969 L 31.136719 -13.042969 L 33.417969 -1.140625 C 33.582031 -0.40625 33.988281 0 34.722656 0 Z M 29.097656 -22.496094 L 18.664062 -22.496094 L 23.882812 -50.945312 Z M 29.097656 -22.496094 "/></g></g></g><g fill="#ffffff" fill-opacity="1"><g transform="translate(2625.226388, 388.944961)"><g><path d="M 5.378906 -65.207031 C 4.484375 -65.207031 4.074219 -64.71875 4.074219 -63.90625 L 4.074219 -1.304688 C 4.074219 -0.488281 4.484375 0 5.378906 0 L 13.855469 0 C 14.671875 0 15.160156 -0.488281 15.160156 -1.304688 L 15.160156 -63.90625 C 15.160156 -64.71875 14.671875 -65.207031 13.855469 -65.207031 Z M 5.378906 -65.207031 "/></g></g></g><g fill="#ffffff" fill-opacity="1"><g transform="translate(2663.536632, 388.944961)"><g><path d="M 29.097656 -65.207031 C 28.203125 -65.207031 27.796875 -64.71875 27.796875 -63.90625 L 27.796875 -29.507812 L 27.304688 -29.507812 L 14.917969 -64.148438 C 14.671875 -64.882812 14.183594 -65.207031 13.449219 -65.207031 L 5.378906 -65.207031 C 4.566406 -65.207031 4.074219 -64.71875 4.074219 -63.90625 L 4.074219 -1.304688 C 4.074219 -0.488281 4.566406 0 5.378906 0 L 13.855469 0 C 14.753906 0 15.160156 -0.488281 15.160156 -1.304688 L 15.160156 -35.863281 L 15.570312 -35.863281 L 28.039062 -1.058594 C 28.285156 -0.324219 28.773438 0 29.507812 0 L 37.578125 0 C 38.390625 0 38.878906 -0.488281 38.878906 -1.304688 L 38.878906 -63.90625 C 38.878906 -64.71875 38.390625 -65.207031 37.578125 -65.207031 Z M 29.097656 -65.207031 "/></g></g></g><g fill="#ffffff" fill-opacity="1"><g transform="translate(2725.566801, 388.944961)"><g><path d="M 38.148438 -65.207031 C 37.167969 -65.207031 36.597656 -64.71875 36.355469 -63.742188 L 27.304688 -23.148438 L 18.257812 -63.742188 C 18.015625 -64.71875 17.441406 -65.207031 16.464844 -65.207031 L 5.707031 -65.207031 C 4.644531 -65.207031 4.074219 -64.636719 4.074219 -63.578125 L 4.074219 -1.628906 C 4.074219 -0.570312 4.644531 0 5.707031 0 L 13.203125 0 C 14.265625 0 14.835938 -0.570312 14.835938 -1.628906 L 14.835938 -38.308594 L 15.40625 -38.308594 L 23.476562 -1.46875 C 23.71875 -0.488281 24.289062 0 25.269531 0 L 29.261719 0 C 30.242188 0 30.8125 -0.488281 31.054688 -1.46875 L 39.125 -38.308594 L 39.695312 -38.308594 L 39.695312 -1.628906 C 39.695312 -0.570312 40.265625 0 41.324219 0 L 48.90625 0 C 49.964844 0 50.535156 -0.570312 50.535156 -1.628906 L 50.535156 -63.578125 C 50.535156 -64.636719 49.964844 -65.207031 48.90625 -65.207031 Z M 38.148438 -65.207031 "/></g></g></g><g fill="#ffffff" fill-opacity="1"><g transform="translate(2799.253058, 388.944961)"><g><path d="M 36.597656 -63.90625 C 36.597656 -64.71875 36.273438 -65.207031 35.292969 -65.207031 L 5.296875 -65.207031 C 4.566406 -65.207031 4.074219 -64.71875 4.074219 -63.90625 L 4.074219 -1.304688 C 4.074219 -0.488281 4.566406 0 5.296875 0 L 35.292969 0 C 36.273438 0 36.597656 -0.488281 36.597656 -1.304688 L 36.597656 -9.457031 C 36.597656 -10.351562 36.273438 -10.757812 35.292969 -10.757812 L 14.917969 -10.757812 L 14.917969 -27.226562 L 30.484375 -27.226562 C 31.300781 -27.226562 31.789062 -27.714844 31.789062 -28.609375 L 31.789062 -36.679688 C 31.789062 -37.578125 31.300781 -38.066406 30.484375 -38.066406 L 14.917969 -38.066406 L 14.917969 -54.367188 L 35.292969 -54.367188 C 36.273438 -54.367188 36.597656 -54.9375 36.597656 -55.753906 Z M 36.597656 -63.90625 "/></g></g></g><g fill="#ffffff" fill-opacity="1"><g transform="translate(2859.000826, 388.944961)"><g><path d="M 29.097656 -65.207031 C 28.203125 -65.207031 27.796875 -64.71875 27.796875 -63.90625 L 27.796875 -29.507812 L 27.304688 -29.507812 L 14.917969 -64.148438 C 14.671875 -64.882812 14.183594 -65.207031 13.449219 -65.207031 L 5.378906 -65.207031 C 4.566406 -65.207031 4.074219 -64.71875 4.074219 -63.90625 L 4.074219 -1.304688 C 4.074219 -0.488281 4.566406 0 5.378906 0 L 13.855469 0 C 14.753906 0 15.160156 -0.488281 15.160156 -1.304688 L 15.160156 -35.863281 L 15.570312 -35.863281 L 28.039062 -1.058594 C 28.285156 -0.324219 28.773438 0 29.507812 0 L 37.578125 0 C 38.390625 0 38.878906 -0.488281 38.878906 -1.304688 L 38.878906 -63.90625 C 38.878906 -64.71875 38.390625 -65.207031 37.578125 -65.207031 Z M 29.097656 -65.207031 "/></g></g></g><g fill="#ffffff" fill-opacity="1"><g transform="translate(2921.030994, 388.944961)"><g><path d="M 3.75 -65.207031 C 2.933594 -65.207031 2.445312 -64.71875 2.445312 -63.90625 L 2.445312 -55.753906 C 2.445312 -54.9375 2.933594 -54.449219 3.75 -54.449219 L 13.203125 -54.449219 L 13.203125 -1.304688 C 13.203125 -0.40625 13.695312 0 14.507812 0 L 22.984375 0 C 23.882812 0 24.289062 -0.40625 24.289062 -1.304688 L 24.289062 -54.449219 L 33.746094 -54.449219 C 34.640625 -54.449219 35.050781 -54.9375 35.050781 -55.753906 L 35.050781 -63.90625 C 35.050781 -64.71875 34.640625 -65.207031 33.746094 -65.207031 Z M 3.75 -65.207031 "/></g></g></g></svg>